PathFileType  4	(X/Y/Z) C:\Users\antoi\Documents\MyRepositories\mobilecap\ResultsAnalysis
DataRate	CameraRate	NumFrames	NumMarkers	Units	OrigDataRate	OrigDataStartFrame	OrigNumFrames
100.0	100.0	4	51	mm	100.0	1	1371
Frame#	Time	r_knee			r_shank_antsup			r_ankle			r_calc			r_5meta			r_toe			L_knee			L_shank_antsup			L_ankle			L_calc			L_5meta			L_toe			r_sh2			r_sh3			r_sh4			L_sh2			L_sh3			r_thigh1			r_thigh2			r_thigh3			r_thigh4			r_thigh5			L_thigh1			L_thigh2			L_thigh3			L_thigh4			r.ASIS			r.PSIS			L.ASIS			L.PSIS			C7			R_Shoulder			L_Shoulder			R_Sternum			L_Sternum			R_humerus			R_elbow_med			R_elbow_lat			R_forearm			R_wrist_radius			R_wrist_ulna			L_humerus			L_elbow_med			L_elbow_lat			L_forearm			L_wrist_radius			L_wrist_ulna			R_HJC			L_HJC			R_HJC_reg			L_HJC_reg			
		X1	Y1	Z1	X2	Y2	Z2	X3	Y3	Z3	X4	Y4	Z4	X5	Y5	Z5	X6	Y6	Z6	X7	Y7	Z7	X8	Y8	Z8	X9	Y9	Z9	X10	Y10	Z10	X11	Y11	Z11	X12	Y12	Z12	X13	Y13	Z13	X14	Y14	Z14	X15	Y15	Z15	X16	Y16	Z16	X17	Y17	Z17	X18	Y18	Z18	X19	Y19	Z19	X20	Y20	Z20	X21	Y21	Z21	X22	Y22	Z22	X23	Y23	Z23	X24	Y24	Z24	X25	Y25	Z25	X26	Y26	Z26	X27	Y27	Z27	X28	Y28	Z28	X29	Y29	Z29	X30	Y30	Z30	X31	Y31	Z31	X32	Y32	Z32	X33	Y33	Z33	X34	Y34	Z34	X35	Y35	Z35	X36	Y36	Z36	X37	Y37	Z37	X38	Y38	Z38	X39	Y39	Z39	X40	Y40	Z40	X41	Y41	Z41	X42	Y42	Z42	X43	Y43	Z43	X44	Y44	Z44	X45	Y45	Z45	X46	Y46	Z46	X47	Y47	Z47	X48	Y48	Z48	X49	Y49	Z49	X50	Y50	Z50	X51	Y51	Z51	

1	0.00000000	-157.33549	473.75335	-408.36044	-98.91553	431.05667	-416.16090	-244.79436	98.13260	-427.50596	-309.51678	59.00895	-473.61187	-124.29036	40.50423	-394.28326	-86.15237	60.80173	-451.24439	-163.74224	463.62617	-788.35097	-130.04503	390.63831	-796.26147	-262.68731	98.52803	-753.58259	-324.02478	58.83780	-702.13458	-149.22144	41.97985	-790.65558	-102.71160	59.88823	-739.13849	-122.49263	318.08613	-430.02477	-167.16497	438.80654	-380.32818	-186.86882	324.39799	-376.59702	-213.94525	419.56174	-804.75542	-244.48385	299.88014	-797.02527	-431.52038	568.67735	-502.82367	-322.95275	577.00841	-480.71103	-310.41625	562.33087	-415.75955	-447.68226	524.18061	-401.65746	-333.43882	519.72935	-385.92205	-467.15248	544.00591	-779.30208	-328.34405	520.40192	-804.40790	-487.36049	433.13538	-794.61017	-352.01723	408.64225	-779.08809	-505.90156	596.47387	-477.69874	-692.46930	551.85656	-554.14827	-500.87154	580.29449	-714.37382	-693.06731	552.29506	-651.27997	-570.13612	1037.67836	-606.74928	-508.54616	994.55742	-444.07752	-509.65458	991.30861	-760.53303	-476.37881	924.98744	-585.81846	-474.32808	922.71435	-624.01044	-549.57501	772.74918	-352.46297	-618.56193	672.61847	-385.28244	-578.09891	686.02608	-326.66260	-454.66286	726.86530	-374.84824	-387.63403	783.28707	-423.47416	-369.34424	741.88275	-422.34283	-557.50368	776.60822	-858.94157	-605.74119	663.86471	-812.12439	-585.79901	672.87742	-883.32751	-451.25692	712.30595	-836.97479	-375.71399	767.29537	-787.58091	-360.44967	725.14749	-784.49121	-543.16375	491.13079	-509.36207	-554.17455	485.31684	-699.62647	-538.21646	495.00896	-510.63823	-539.18061	495.71593	-667.23898	
2	0.01000000	-157.23581	473.74567	-408.63989	-98.88632	431.02965	-416.25063	-244.80200	98.07816	-427.51505	-309.51375	58.99380	-473.61560	-124.26799	40.51405	-394.29563	-86.14981	60.84146	-451.30775	-163.68552	463.94364	-788.79000	-130.08061	390.74033	-796.27229	-262.67951	98.54618	-753.59104	-324.02482	58.85298	-702.13440	-149.22567	41.99885	-790.65679	-102.72078	59.88447	-739.13595	-122.49309	318.05276	-429.99275	-167.07637	439.03572	-380.29655	-186.75980	324.55324	-376.73575	-213.94161	419.52491	-804.64193	-244.55545	299.87243	-796.88455	-431.56906	568.72597	-502.82868	-323.01046	577.00202	-480.74852	-310.39310	562.36209	-415.77500	-447.59264	524.16036	-401.79635	-333.40379	519.74803	-385.90007	-467.21339	544.01166	-779.09509	-328.33614	520.45440	-804.34517	-487.37757	433.17158	-794.60448	-352.05008	408.66640	-778.90831	-505.93936	596.41651	-477.71238	-692.42339	551.90069	-554.08927	-500.82944	580.28856	-714.36912	-693.12708	552.39951	-651.24090	-569.69789	1037.75067	-606.67953	-508.12506	994.45316	-444.09129	-509.12739	990.96005	-760.63544	-475.71105	924.93942	-585.96676	-473.97833	922.66563	-623.92440	-549.28022	772.71563	-352.50022	-618.25194	672.51284	-385.26389	-577.87945	685.96278	-326.75498	-454.39526	726.75759	-374.82717	-387.28132	783.19454	-423.43884	-369.07162	741.74635	-422.18545	-557.19727	776.58728	-858.91471	-605.67859	663.83450	-812.14811	-585.57419	672.95945	-883.40225	-451.04101	712.24349	-837.03224	-375.31183	767.19817	-787.58213	-360.30920	725.02149	-784.47897	-543.19917	491.10252	-509.36324	-554.23048	485.33858	-699.62796	-538.12619	494.93338	-510.66939	-539.26044	495.73734	-667.25524	
3	0.02000000	-157.19216	473.74184	-408.78705	-98.88518	431.04538	-416.33627	-244.79619	98.11053	-427.48243	-309.51682	58.97350	-473.59584	-124.26829	40.52541	-394.30172	-86.14946	60.85079	-451.33022	-163.66044	464.49358	-789.60582	-130.08812	390.77488	-796.22517	-262.67590	98.53540	-753.57799	-324.02387	58.85214	-702.13209	-149.22071	42.00703	-790.65518	-102.71547	59.89490	-739.14030	-122.48925	318.06467	-430.06497	-167.07113	439.08569	-380.35595	-186.75359	324.52728	-376.92239	-213.95216	419.51723	-804.59014	-244.53607	299.89761	-796.90935	-431.59181	568.74344	-502.82268	-323.03721	577.00433	-480.80132	-310.37842	562.36404	-415.78585	-447.56370	524.27075	-401.73953	-333.43444	519.76268	-385.94090	-467.22794	544.03843	-779.00457	-328.33398	520.47534	-804.20685	-487.38638	433.19144	-794.60499	-352.07490	408.68387	-778.82924	-505.93669	596.38663	-477.70622	-692.42730	551.98162	-554.09376	-500.76837	580.26284	-714.36450	-693.14937	552.50066	-651.23460	-569.24042	1037.74707	-606.60321	-507.58493	994.42778	-444.16610	-508.67329	990.83835	-760.59093	-475.25149	924.84125	-586.01273	-473.57741	922.62053	-623.84809	-548.94474	772.75771	-352.40611	-617.99650	672.54057	-385.26687	-577.61951	685.96383	-326.70918	-454.06241	726.69129	-374.84317	-386.90154	783.00295	-423.48375	-368.79755	741.63484	-422.11950	-556.93154	776.59826	-858.92391	-605.57617	663.87856	-812.14469	-585.32490	673.02803	-883.41902	-450.78130	712.16594	-837.05055	-374.99721	767.12273	-787.59589	-360.07254	724.92525	-784.53448	-543.25062	491.09575	-509.35680	-554.26435	485.34570	-699.62296	-538.12683	494.90245	-510.67561	-539.29087	495.73913	-667.26276	
4	0.03000000	-157.20133	473.75404	-408.79412	-98.88073	431.10134	-416.39529	-244.79244	98.15887	-427.47285	-309.52290	58.97298	-473.63859	-124.27994	40.52464	-394.29712	-86.15471	60.83963	-451.34055	-163.65757	464.86118	-790.16311	-130.09799	390.75685	-796.13441	-262.67587	98.52024	-753.57730	-324.02095	58.83846	-702.13288	-149.21374	41.99958	-790.65650	-102.70711	59.90970	-739.15867	-122.46636	318.03761	-430.17080	-167.12035	439.03168	-380.48585	-186.79074	324.43159	-377.11453	-213.96515	419.52158	-804.55300	-244.50980	299.89653	-796.95281	-431.59676	568.74279	-502.84140	-323.02378	576.99916	-480.86646	-310.37721	562.34062	-415.80673	-447.53518	524.39610	-401.62599	-333.46749	519.78209	-385.96986	-467.21880	544.06091	-779.00037	-328.33840	520.47729	-804.09888	-487.38862	433.20000	-794.60448	-352.08620	408.65115	-778.76433	-505.88489	596.39340	-477.61972	-692.43702	552.06443	-554.11157	-500.69095	580.22073	-714.38400	-693.10751	552.60400	-651.22433	-568.75470	1037.69127	-606.52925	-507.03293	994.43321	-444.23285	-508.25877	990.88752	-760.42244	-474.91613	924.70994	-585.94845	-473.13928	922.54653	-623.80838	-548.55035	772.85873	-352.22958	-617.81398	672.64549	-385.37151	-577.31288	686.00487	-326.60968	-453.69841	726.63913	-374.83798	-386.51445	782.78380	-423.60082	-368.53110	741.55521	-422.14946	-556.68791	776.62639	-858.92503	-605.43480	664.02263	-812.07858	-585.06560	673.05021	-883.36137	-450.48434	712.09516	-837.05934	-374.75316	767.03111	-787.60945	-359.73176	724.86020	-784.70019	-543.27774	491.10941	-509.32202	-554.25614	485.34525	-699.58980	-538.14587	494.84799	-510.64408	-539.22753	495.71849	-667.30395	
